<?xml version="1.0" encoding="UTF-8"?>
<svg xmlns="http://www.w3.org/2000/svg" version="1.1"
     width="220mm" height="320mm"
     viewBox="0 0 220 320">
  <title>VA3YMX SDR / ADS-B Receiver vinyl logo</title>
  <desc>Single-color black cut-ready logo. Text converted to outlines. 220mm x 320mm.</desc>
  <g fill="#000000" stroke="none" fill-rule="evenodd">
<path transform="scale(0.323529)" d="M340 100 q14 0 16 26 l4 44 l150 50 q12 4 12 16 l0 14 l-166 -34 l-4 70 l40 30 q8 6 8 14 l0 8 l-60 -16 l-60 16 l0 -8 q0 -8 8 -14 l40 -30 l-4 -70 l-166 34 l0 -14 q0 -12 12 -16 l150 -50 l4 -44 q2 -26 16 -26 z"/>
<g><path transform="translate(37.812,142.353) scale(0.018641,-0.018641)" d="M616 246 879 1493H1176L821 0H412L57 1493H354Z"/>
<path transform="translate(62.090,142.353) scale(0.018641,-0.018641)" d="M616 1223 477 612H756ZM436 1493H797L1200 0H905L813 369H418L328 0H33Z"/>
<path transform="translate(86.369,142.353) scale(0.018641,-0.018641)" d="M549 668H391V928H549Q659 928 719.5 971.5Q780 1015 780 1094Q780 1177 719.5 1223.5Q659 1270 549 1270Q465 1270 369.0 1249.0Q273 1228 170 1188V1456Q273 1487 373.0 1503.5Q473 1520 565 1520Q801 1520 933.0 1417.0Q1065 1314 1065 1133Q1065 1000 989.0 915.5Q913 831 772 805Q932 777 1016.0 677.5Q1100 578 1100 416Q1100 199 961.0 85.0Q822 -29 557 -29Q444 -29 334.5 -10.0Q225 9 125 45V319Q219 272 328.0 247.5Q437 223 557 223Q677 223 747.0 278.5Q817 334 817 428Q817 543 747.0 605.5Q677 668 549 668Z"/>
<path transform="translate(110.647,142.353) scale(0.018641,-0.018641)" d="M8 1493H326L616 893L907 1493H1225L764 588V0H469V588Z"/>
<path transform="translate(134.925,142.353) scale(0.018641,-0.018641)" d="M86 1493H438L616 838L793 1493H1147V0H893V1196L735 543H500L340 1196V0H86Z"/>
<path transform="translate(159.204,142.353) scale(0.018641,-0.018641)" d="M1206 0H901L616 494L332 0H27L465 758L39 1493H344L616 1018L889 1493H1194L770 758Z"/></g>
<g><path transform="translate(44.544,169.853) scale(0.007267,-0.007267)" d="M510 655Q287 740 208.0 833.5Q129 927 129 1085Q129 1288 259.0 1404.0Q389 1520 616 1520Q719 1520 822.0 1496.5Q925 1473 1026 1427V1139Q931 1206 833.0 1241.0Q735 1276 639 1276Q532 1276 475.0 1233.0Q418 1190 418 1110Q418 1048 459.5 1007.5Q501 967 633 918L760 870Q940 804 1025.0 695.0Q1110 586 1110 420Q1110 194 976.5 82.5Q843 -29 573 -29Q462 -29 350.5 -2.5Q239 24 135 76V381Q253 297 363.5 256.0Q474 215 582 215Q691 215 751.0 264.5Q811 314 811 403Q811 470 771.0 520.5Q731 571 655 600Z"/>
<path transform="translate(56.739,169.853) scale(0.007267,-0.007267)" d="M432 1227V266H512Q686 266 760.0 375.5Q834 485 834 748Q834 1009 760.0 1118.0Q686 1227 512 1227ZM137 1493H453Q819 1493 980.0 1318.5Q1141 1144 1141 748Q1141 351 980.0 175.5Q819 0 453 0H137Z"/>
<path transform="translate(68.934,169.853) scale(0.007267,-0.007267)" d="M807 705Q851 696 883.5 663.5Q916 631 963 537L1233 0H909L729 377Q721 393 708 421Q629 590 522 590H428V0H133V1493H559Q847 1493 972.5 1391.0Q1098 1289 1098 1059Q1098 905 1023.0 814.0Q948 723 807 705ZM428 1245V838H567Q688 838 740.5 885.5Q793 933 793 1042Q793 1151 741.0 1198.0Q689 1245 567 1245Z"/>
<path transform="translate(93.325,169.853) scale(0.007267,-0.007267)" d="M449 895H782V530H449Z"/>
<path transform="translate(117.715,169.853) scale(0.007267,-0.007267)" d="M616 1223 477 612H756ZM436 1493H797L1200 0H905L813 369H418L328 0H33Z"/>
<path transform="translate(129.910,169.853) scale(0.007267,-0.007267)" d="M432 1227V266H512Q686 266 760.0 375.5Q834 485 834 748Q834 1009 760.0 1118.0Q686 1227 512 1227ZM137 1493H453Q819 1493 980.0 1318.5Q1141 1144 1141 748Q1141 351 980.0 175.5Q819 0 453 0H137Z"/>
<path transform="translate(142.106,169.853) scale(0.007267,-0.007267)" d="M510 655Q287 740 208.0 833.5Q129 927 129 1085Q129 1288 259.0 1404.0Q389 1520 616 1520Q719 1520 822.0 1496.5Q925 1473 1026 1427V1139Q931 1206 833.0 1241.0Q735 1276 639 1276Q532 1276 475.0 1233.0Q418 1190 418 1110Q418 1048 459.5 1007.5Q501 967 633 918L760 870Q940 804 1025.0 695.0Q1110 586 1110 420Q1110 194 976.5 82.5Q843 -29 573 -29Q462 -29 350.5 -2.5Q239 24 135 76V381Q253 297 363.5 256.0Q474 215 582 215Q691 215 751.0 264.5Q811 314 811 403Q811 470 771.0 520.5Q731 571 655 600Z"/>
<path transform="translate(154.301,169.853) scale(0.007267,-0.007267)" d="M301 735H932V444H301Z"/>
<path transform="translate(166.496,169.853) scale(0.007267,-0.007267)" d="M410 678V236H606Q747 236 803.5 284.0Q860 332 860 451Q860 572 801.0 625.0Q742 678 606 678ZM410 1260V913H606Q718 913 765.5 953.0Q813 993 813 1085Q813 1177 764.5 1218.5Q716 1260 606 1260ZM125 1495H606Q855 1495 980.5 1400.5Q1106 1306 1106 1118Q1106 974 1032.0 893.0Q958 812 815 799Q986 782 1072.5 684.0Q1159 586 1159 410Q1159 194 1029.0 97.0Q899 0 606 0H125Z"/></g>
<g><path transform="translate(64.540,187.647) scale(0.006003,-0.006003)" d="M807 705Q851 696 883.5 663.5Q916 631 963 537L1233 0H909L729 377Q721 393 708 421Q629 590 522 590H428V0H133V1493H559Q847 1493 972.5 1391.0Q1098 1289 1098 1059Q1098 905 1023.0 814.0Q948 723 807 705ZM428 1245V838H567Q688 838 740.5 885.5Q793 933 793 1042Q793 1151 741.0 1198.0Q689 1245 567 1245Z"/>
<path transform="translate(76.471,187.647) scale(0.006003,-0.006003)" d="M1098 0H168V1493H1098V1233H463V911H1038V651H463V260H1098Z"/>
<path transform="translate(88.403,187.647) scale(0.006003,-0.006003)" d="M1081 43Q1011 7 934.0 -11.0Q857 -29 772 -29Q470 -29 311.0 170.0Q152 369 152 745Q152 1122 311.0 1321.0Q470 1520 772 1520Q857 1520 935.0 1502.0Q1013 1484 1081 1448V1120Q1005 1190 933.5 1222.5Q862 1255 786 1255Q624 1255 541.5 1126.5Q459 998 459 745Q459 493 541.5 364.5Q624 236 786 236Q862 236 933.5 268.5Q1005 301 1081 371Z"/>
<path transform="translate(100.334,187.647) scale(0.006003,-0.006003)" d="M1098 0H168V1493H1098V1233H463V911H1038V651H463V260H1098Z"/>
<path transform="translate(112.265,187.647) scale(0.006003,-0.006003)" d="M172 1233V1493H1061V1233H764V260H1061V0H172V260H469V1233Z"/>
<path transform="translate(124.196,187.647) scale(0.006003,-0.006003)" d="M616 246 879 1493H1176L821 0H412L57 1493H354Z"/>
<path transform="translate(136.127,187.647) scale(0.006003,-0.006003)" d="M1098 0H168V1493H1098V1233H463V911H1038V651H463V260H1098Z"/>
<path transform="translate(148.058,187.647) scale(0.006003,-0.006003)" d="M807 705Q851 696 883.5 663.5Q916 631 963 537L1233 0H909L729 377Q721 393 708 421Q629 590 522 590H428V0H133V1493H559Q847 1493 972.5 1391.0Q1098 1289 1098 1059Q1098 905 1023.0 814.0Q948 723 807 705ZM428 1245V838H567Q688 838 740.5 885.5Q793 933 793 1042Q793 1151 741.0 1198.0Q689 1245 567 1245Z"/></g>
  </g>
</svg>
